<?xml version="1.0" encoding="utf-8"?>
<!-- Generator: Adobe Illustrator 19.2.0, SVG Export Plug-In . SVG Version: 6.00 Build 0)  -->
<svg version="1.1" id="Layer_1" xmlns="http://www.w3.org/2000/svg" xmlns:xlink="http://www.w3.org/1999/xlink" x="0px" y="0px"
	 viewBox="0 0 325 70" style="enable-background:new 0 0 325 70;" xml:space="preserve">
<style type="text/css">
	.st0{fill:#1E88C9;}
	.st1{fill:#636F74;}
	.st2{fill:#E12228;}
</style>
<path id="XMLID_9_" class="st0" d="M91.7,6.1l-7-0.9c-0.1,0-0.2-0.1-0.2-0.2l0,0c0-0.1,0.1-0.2,0.2-0.2h11.9c1.3,0,2.6,0.4,3.7,1.1
	l1.1,0.7c0.2,0.1,1.3,0.9,1.1,0.8L91.7,6.1z"/>
<path class="st1" d="M128.6,27V13.4h4V27c0,3.6,2,5.9,5.8,5.9s5.8-2.3,5.8-5.9V13.4h4V27c0,5.6-3.2,9.4-9.8,9.4
	C131.8,36.3,128.6,32.5,128.6,27z"/>
<path class="st1" d="M154.1,36V13.4h10c4.7,0,7.4,3.2,7.4,7.1c0,3.8-2.6,7.1-7.4,7.1h-6v8.5h-4V36z M167.4,20.5
	c0-2.2-1.6-3.6-3.8-3.6h-5.5V24h5.5C165.8,24,167.4,22.5,167.4,20.5z"/>
<path class="st1" d="M174.3,32.8l2.2-3.1c1.5,1.7,4,3.2,7.2,3.2c3.3,0,4.5-1.6,4.5-3.1c0-4.7-13.2-1.8-13.2-10.1
	c0-3.8,3.3-6.6,8.2-6.6c3.5,0,6.4,1.2,8.4,3.2l-2.2,2.9c-1.8-1.8-4.2-2.6-6.6-2.6c-2.3,0-3.8,1.2-3.8,2.8c0,4.2,13.2,1.6,13.2,10
	c0,3.8-2.7,7-8.7,7C179.4,36.3,176.3,34.8,174.3,32.8z"/>
<path class="st1" d="M202.2,36V16.9h-6.8v-3.5H213v3.5h-6.8V36H202.2z"/>
<path class="st1" d="M229.9,36l-5-8.4h-4V36h-4V13.4h9.9c4.5,0,7.4,2.9,7.4,7.1c0,4-2.6,6.2-5.4,6.6l5.6,8.9H229.9z M230.2,20.4
	c0-2.2-1.6-3.6-3.9-3.6h-5.5V24h5.5C228.6,24,230.2,22.5,230.2,20.4z"/>
<path class="st1" d="M239.3,36V13.4h15.5v3.5h-11.5v5.8h11.3v3.5h-11.3v6.3h11.5V36H239.3z"/>
<path class="st1" d="M276.1,36l-1.7-4.4H264l-1.7,4.4h-4.5l8.9-22.6h4.9l8.9,22.6H276.1z M269.3,17.2L265.2,28h8.1L269.3,17.2z"/>
<path class="st1" d="M303.7,36V18.5L296.8,36h-1.7l-6.9-17.5V36h-4V13.4h5.6l6.2,15.5l6.1-15.5h5.6V36H303.7z"/>
<path class="st1" d="M128,52.8l0.8-1c0.7,0.8,1.8,1.5,3.2,1.5c1.8,0,2.4-1,2.4-1.8c0-2.6-6.1-1.2-6.1-4.8c0-1.7,1.5-2.9,3.5-2.9
	c1.5,0,2.8,0.5,3.6,1.4l-0.8,0.9c-0.8-0.9-1.8-1.2-3-1.2s-2.1,0.7-2.1,1.6c0,2.3,6.1,1,6.1,4.8c0,1.5-1,3-3.8,3
	C130.2,54.5,128.8,53.8,128,52.8z"/>
<path class="st1" d="M138,52.8V48h-1.2v-1h1.2v-2h1.2v2h1.5v1h-1.5v4.6c0,0.6,0.2,1,0.7,1c0.3,0,0.6-0.2,0.8-0.3l0.3,0.9
	c-0.3,0.3-0.7,0.5-1.4,0.5C138.5,54.5,138,53.8,138,52.8z"/>
<path class="st1" d="M142.6,54.2v-7.4h1.2V48c0.6-0.8,1.5-1.4,2.5-1.4v1.2c-0.1,0-0.3,0-0.4,0c-0.7,0-1.7,0.6-2,1.2v5.2H142.6z"/>
<path class="st1" d="M152.6,54.2v-0.8c-0.6,0.7-1.5,1-2.5,1c-1.2,0-2.6-0.8-2.6-2.5s1.3-2.4,2.6-2.4c1,0,1.9,0.3,2.5,1v-1.3
	c0-1-0.8-1.5-1.9-1.5c-0.9,0-1.6,0.3-2.3,1l-0.5-0.8c0.8-0.8,1.7-1.2,3-1.2c1.6,0,2.9,0.7,2.9,2.5v5H152.6z M152.6,52.8v-1.5
	c-0.4-0.6-1.2-0.9-2-0.9c-1.1,0-1.8,0.7-1.8,1.6c0,1,0.8,1.6,1.8,1.6C151.4,53.7,152.1,53.3,152.6,52.8z"/>
<path class="st1" d="M156.5,52.8V48h-1.2v-1h1.2v-2h1.2v2h1.5v1h-1.5v4.6c0,0.6,0.2,1,0.7,1c0.3,0,0.6-0.2,0.8-0.3l0.3,0.9
	c-0.3,0.3-0.7,0.5-1.4,0.5C157.1,54.5,156.5,53.8,156.5,52.8z"/>
<path class="st1" d="M160.5,50.5c0-2.1,1.5-3.9,3.7-3.9s3.6,1.8,3.6,4v0.3h-6c0.1,1.4,1.1,2.6,2.7,2.6c0.9,0,1.7-0.3,2.3-1l0.6,0.8
	c-0.8,0.7-1.7,1.2-2.9,1.2C162.1,54.5,160.5,52.8,160.5,50.5z M164.1,47.7c-1.6,0-2.4,1.3-2.4,2.5h4.9
	C166.5,49,165.8,47.7,164.1,47.7z"/>
<path class="st1" d="M169.8,56.2l0.6-0.8c0.6,0.7,1.4,1,2.4,1c1.2,0,2.4-0.6,2.4-2.2v-1.1c-0.6,0.8-1.5,1.3-2.5,1.3
	c-1.9,0-3.3-1.4-3.3-3.8c0-2.4,1.3-3.9,3.3-3.9c1,0,1.9,0.5,2.5,1.3v-1.1h1.2v7.3c0,2.3-1.7,3.1-3.5,3.1
	C171.6,57.2,170.7,57,169.8,56.2z M175.2,52.2v-3.3c-0.4-0.6-1.3-1.2-2.2-1.2c-1.5,0-2.4,1.2-2.4,2.8s0.9,2.8,2.4,2.8
	C173.9,53.3,174.8,52.8,175.2,52.2z"/>
<path class="st1" d="M178.7,45c0-0.4,0.4-0.8,0.8-0.8s0.8,0.4,0.8,0.8s-0.3,0.8-0.8,0.8S178.7,45.5,178.7,45z M178.9,54.2v-7.4h1.2
	v7.4H178.9z"/>
<path class="st1" d="M182.1,50.5c0-2.2,1.5-3.9,3.7-3.9c1.4,0,2.1,0.6,2.7,1.3l-0.8,0.7c-0.5-0.7-1.1-0.9-1.9-0.9
	c-1.6,0-2.6,1.2-2.6,2.9c0,1.6,1,2.9,2.6,2.9c0.8,0,1.4-0.3,1.9-1l0.8,0.7c-0.6,0.7-1.4,1.3-2.7,1.3
	C183.6,54.5,182.1,52.8,182.1,50.5z"/>
<path class="st1" d="M193.8,49.2c0-3.1,2.3-5.3,5.3-5.3c1.8,0,3.1,0.9,3.9,2l-1.1,0.6c-0.6-0.9-1.7-1.5-2.8-1.5
	c-2.2,0-3.9,1.7-3.9,4.2c0,2.4,1.7,4.2,3.9,4.2c1.2,0,2.2-0.6,2.8-1.5l1.1,0.6c-0.9,1.2-2.1,2-3.9,2
	C196.1,54.5,193.8,52.3,193.8,49.2z"/>
<path class="st1" d="M204.4,50.5c0-2.1,1.4-3.9,3.7-3.9s3.7,1.7,3.7,3.9c0,2.1-1.4,3.9-3.7,3.9C205.8,54.5,204.4,52.8,204.4,50.5z
	 M210.5,50.5c0-1.5-0.9-2.9-2.5-2.9s-2.5,1.3-2.5,2.9c0,1.5,0.9,2.9,2.5,2.9S210.5,52,210.5,50.5z"/>
<path class="st1" d="M222.8,54.2v-5c0-0.9-0.4-1.5-1.4-1.5c-0.8,0-1.6,0.5-2,1.1v5.4h-1.2v-5c0-0.9-0.4-1.5-1.4-1.5
	c-0.8,0-1.5,0.6-1.9,1.2v5.3h-1.2v-7.4h1.2v1.1c0.3-0.5,1.3-1.3,2.4-1.3c1.1,0,1.8,0.6,2,1.4c0.4-0.7,1.4-1.4,2.5-1.4
	c1.4,0,2.1,0.8,2.1,2.2v5.4H222.8z"/>
<path class="st1" d="M235.5,54.2v-5c0-0.9-0.4-1.5-1.4-1.5c-0.8,0-1.6,0.5-2,1.1v5.4H231v-5c0-0.9-0.4-1.5-1.4-1.5
	c-0.8,0-1.5,0.6-1.9,1.2v5.3h-1.2v-7.4h1.2v1.1c0.3-0.5,1.3-1.3,2.4-1.3c1.1,0,1.8,0.6,2,1.4c0.4-0.7,1.4-1.4,2.5-1.4
	c1.4,0,2.1,0.8,2.1,2.2v5.4H235.5z"/>
<path class="st1" d="M244.2,54.2v-1c-0.6,0.6-1.5,1.2-2.6,1.2c-1.5,0-2.4-0.8-2.4-2.4v-5.2h1.2v4.9c0,1.3,0.7,1.7,1.7,1.7
	c0.9,0,1.7-0.5,2.2-1.1V47h1.2v7.3H244.2z"/>
<path class="st1" d="M252.9,54.2v-4.8c0-1.3-0.7-1.7-1.7-1.7c-0.9,0-1.7,0.6-2.2,1.2v5.3h-1.2v-7.4h1.2v1.1c0.5-0.6,1.5-1.3,2.7-1.3
	c1.5,0,2.3,0.8,2.3,2.4v5.2H252.9z"/>
<path class="st1" d="M256.4,45c0-0.4,0.4-0.8,0.8-0.8c0.4,0,0.8,0.4,0.8,0.8s-0.3,0.8-0.8,0.8S256.4,45.5,256.4,45z M256.5,54.2
	v-7.4h1.2v7.4H256.5z"/>
<path class="st1" d="M259.8,50.5c0-2.2,1.5-3.9,3.7-3.9c1.3,0,2.1,0.6,2.7,1.3l-0.8,0.7c-0.5-0.7-1.1-0.9-1.9-0.9
	c-1.6,0-2.6,1.2-2.6,2.9c0,1.6,1,2.9,2.6,2.9c0.8,0,1.4-0.3,1.9-1l0.8,0.7c-0.6,0.7-1.4,1.3-2.7,1.3
	C261.3,54.5,259.8,52.8,259.8,50.5z"/>
<path class="st1" d="M272.8,54.2v-0.8c-0.6,0.7-1.5,1-2.5,1c-1.2,0-2.6-0.8-2.6-2.5s1.3-2.4,2.6-2.4c1,0,1.9,0.3,2.5,1v-1.3
	c0-1-0.8-1.5-1.9-1.5c-0.9,0-1.6,0.3-2.3,1l-0.5-0.8c0.8-0.8,1.7-1.2,3-1.2c1.6,0,2.9,0.7,2.9,2.5v5H272.8z M272.8,52.8v-1.5
	c-0.4-0.6-1.2-0.9-2-0.9c-1.1,0-1.8,0.7-1.8,1.6c0,1,0.8,1.6,1.8,1.6C271.5,53.7,272.3,53.3,272.8,52.8z"/>
<path class="st1" d="M276.7,52.8V48h-1.2v-1h1.2v-2h1.2v2h1.5v1h-1.5v4.6c0,0.6,0.2,1,0.7,1c0.3,0,0.6-0.2,0.8-0.3l0.3,0.9
	c-0.3,0.3-0.7,0.5-1.4,0.5C277.2,54.5,276.7,53.8,276.7,52.8z"/>
<path class="st1" d="M281.1,45c0-0.4,0.4-0.8,0.8-0.8s0.8,0.4,0.8,0.8s-0.3,0.8-0.8,0.8S281.1,45.5,281.1,45z M281.3,54.2v-7.4h1.2
	v7.4H281.3z"/>
<path class="st1" d="M284.6,50.5c0-2.1,1.4-3.9,3.7-3.9c2.3,0,3.7,1.7,3.7,3.9c0,2.1-1.4,3.9-3.7,3.9S284.6,52.8,284.6,50.5z
	 M290.7,50.5c0-1.5-0.9-2.9-2.5-2.9s-2.5,1.3-2.5,2.9c0,1.5,0.9,2.9,2.5,2.9C289.8,53.5,290.7,52,290.7,50.5z"/>
<path class="st1" d="M299,54.2v-4.8c0-1.3-0.7-1.7-1.7-1.7c-0.9,0-1.7,0.6-2.2,1.2v5.3H294v-7.4h1.2v1.1c0.5-0.6,1.5-1.3,2.7-1.3
	c1.5,0,2.3,0.8,2.3,2.4v5.2H299z"/>
<path class="st1" d="M302.1,53.2l0.6-0.8c0.5,0.6,1.4,1.1,2.4,1.1c1.1,0,1.8-0.5,1.8-1.3c0-1.8-4.6-0.7-4.6-3.4c0-1.2,1-2.1,2.7-2.1
	c1.3,0,2.2,0.5,2.7,1.1l-0.5,0.8c-0.4-0.5-1.2-0.9-2.2-0.9s-1.6,0.5-1.6,1.2c0,1.6,4.6,0.6,4.6,3.4c0,1.2-1,2.2-2.9,2.2
	C303.9,54.5,302.9,54,302.1,53.2z"/>
<polygon id="XMLID_3_" class="st2" points="67.3,49 47.3,66.9 3,66.9 "/>
<path class="st0" d="M48.3,32.5c-4.5-1-23.9-2.9-23.9-9.1c0-4.1,4.9-6.8,11.9-8.4c0.5-0.2,1-0.3,1.6-0.5c11.4-3,37.7-4.2,44-5.7
	c7-1.7-21.9-4-21.9-4H17.3v40.4v2.5v0l0,0c0,0.4,0.4,0.7,0.8,0.6l4.8-1l0,0c15.2-3,36.5-7.3,36.5-10.3
	C59.4,34.5,52.8,33.3,48.3,32.5z"/>
<path class="st0" d="M113.8,4.8H74.4c0.7,0.1,1.5,0.1,2.3,0.1c8,0.3,23,1.5,22.8,3.6c-0.2,2.5-8,3.1-8,3.1l-20.4,2.3
	c-0.4,0.1-0.8,0.1-1.2,0.2l-10.6,1.7c-7.1,1.6-11.3,2.8-11.7,5.6c-0.7,3.8,17.9,4.3,25.3,5.1c3.8,0.5,13.4,1.5,21.2,4
	c6.2,2,11.3,4.8,11.2,8.9c0,11.1-16.4,17.1-24.8,19.5v0c-0.1,0-0.2,0.1-0.3,0.1c-0.5,0.1-0.4,0.8,0.1,0.8H86c0,0,0,0,0,0h27.8V4.8z"
	/>
</svg>
